<?xml version="1.0" encoding="utf-8"?>
<!-- Generator: Adobe Illustrator 16.0.0, SVG Export Plug-In . SVG Version: 6.00 Build 0)  -->
<!DOCTYPE svg PUBLIC "-//W3C//DTD SVG 1.1 Tiny//EN" "http://www.w3.org/Graphics/SVG/1.1/DTD/svg11-tiny.dtd">
<svg version="1.1" baseProfile="tiny" id="Layer_1" xmlns="http://www.w3.org/2000/svg" xmlns:xlink="http://www.w3.org/1999/xlink"
	 x="0px" y="0px" width="100px" height="100px" viewBox="0 0 100 100" xml:space="preserve">
<circle fill="#FFFFFF" stroke="#000000" stroke-width="7" stroke-miterlimit="10" cx="51" cy="32.573" r="26.129"/>
<path fill="none" stroke="#000000" stroke-width="7" stroke-miterlimit="10" d="M32.273,52.969
	c-11.636,4.1-28.352,17.583-27.11,35.166"/>
<circle fill="#3D96D2" cx="80.823" cy="74.38" r="17.88"/>
<circle fill="#3D96D2" cx="51" cy="31.875" r="18.125"/>
<g>
	<path fill="#FFFFFF" stroke="#FFFFFF" stroke-width="3" stroke-miterlimit="10" d="M83.532,85.621
		c-0.015-2.568-0.029-5.147-0.043-7.852c2.634,0.023,5.227,0.047,7.781,0.071c0.008-1.771,0.015-3.498,0.026-5.282
		c-2.572,0.02-5.145,0.04-7.862,0.062c0.039-2.699,0.078-5.29,0.119-7.874c-1.877,0.004-3.609,0.009-5.4,0.014
		c0.002,2.582,0.002,5.16,0.006,7.958c-2.612-0.046-5.203-0.094-7.787-0.142c-0.006,1.794-0.014,3.5-0.021,5.372
		c2.609-0.026,5.197-0.051,7.903-0.078c-0.023,2.645-0.044,5.22-0.065,7.789C79.962,85.646,81.69,85.634,83.532,85.621z"/>
</g>
</svg>
