<?xml version="1.0" encoding="utf-8"?>
<!-- Generator: Adobe Illustrator 16.0.0, SVG Export Plug-In . SVG Version: 6.00 Build 0)  -->
<!DOCTYPE svg PUBLIC "-//W3C//DTD SVG 1.1//EN" "http://www.w3.org/Graphics/SVG/1.1/DTD/svg11.dtd">
<svg version="1.1" id="Layer_1" xmlns="http://www.w3.org/2000/svg" xmlns:xlink="http://www.w3.org/1999/xlink" x="0px" y="0px"
	 width="20px" height="20px" viewBox="0 0 20 20" enable-background="new 0 0 20 20" xml:space="preserve">
<g>
	<path fill-rule="evenodd" clip-rule="evenodd" fill="#3C97D3" d="M4.559,19.277c1.806-1.826,3.62-3.659,5.522-5.582
		c1.846,1.88,3.662,3.731,5.451,5.553c1.258-1.245,2.486-2.462,3.754-3.717c-1.832-1.804-3.666-3.608-5.603-5.515
		c1.938-1.88,3.798-3.685,5.652-5.485c-1.329-1.323-2.557-2.544-3.827-3.808c-1.825,1.828-3.646,3.651-5.623,5.632
		C8.071,4.475,6.272,2.609,4.479,0.749C3.205,2.012,1.993,3.213,0.664,4.531c1.864,1.827,3.711,3.64,5.644,5.534
		c-1.886,1.854-3.721,3.66-5.554,5.46C2.017,16.772,3.249,17.985,4.559,19.277z"/>
</g>
</svg>
