<?xml version="1.0" encoding="utf-8"?>
<!-- Generator: Adobe Illustrator 16.0.0, SVG Export Plug-In . SVG Version: 6.00 Build 0)  -->
<!DOCTYPE svg PUBLIC "-//W3C//DTD SVG 1.1//EN" "http://www.w3.org/Graphics/SVG/1.1/DTD/svg11.dtd">
<svg version="1.1" id="Layer_1" xmlns="http://www.w3.org/2000/svg" xmlns:xlink="http://www.w3.org/1999/xlink" x="0px" y="0px"
	 width="100px" height="100px" viewBox="0 0 100 100" enable-background="new 0 0 100 100" xml:space="preserve">
<path id="messages_4_" fill-rule="evenodd" clip-rule="evenodd" fill="#2D3F50" d="M13.136,92.53
	c3.554-5.075,6.583-8.724,8.836-12.804c2.78-5.009,1.847-7.563-2.818-10.746c-2.427-1.659-4.929-3.238-7.239-5.05
	C1.345,55.632-0.31,43.637,7.809,32.819c6.778-9.042,16.311-13.903,27.015-16.672c16.659-4.313,32.847-3.271,47.856,5.614
	c10.484,6.209,17.388,14.933,15.723,28.122c-0.966,7.598-5.3,13.242-11.051,17.906c-7.587,6.149-16.475,10.205-26.021,10.352
	C44.267,78.396,28.87,83.251,13.136,92.53z"/>
</svg>
