<?xml version="1.0" encoding="utf-8"?>
<!-- Generator: Adobe Illustrator 16.0.0, SVG Export Plug-In . SVG Version: 6.00 Build 0)  -->
<!DOCTYPE svg PUBLIC "-//W3C//DTD SVG 1.1//EN" "http://www.w3.org/Graphics/SVG/1.1/DTD/svg11.dtd">
<svg version="1.1" id="Layer_1" xmlns="http://www.w3.org/2000/svg" xmlns:xlink="http://www.w3.org/1999/xlink" x="0px" y="0px"
	 width="100px" height="100px" viewBox="0 0 100 100" enable-background="new 0 0 100 100" xml:space="preserve">
<path id="messages_4_" fill="#2D3F50" stroke="#E64D3C" stroke-width="3.7" stroke-miterlimit="10" d="M12.467,92.529
	c3.554-5.074,6.583-8.723,8.836-12.803c2.78-5.01,1.847-7.564-2.818-10.746c-2.427-1.66-4.929-3.238-7.239-5.051
	C0.676,55.631-0.979,43.637,7.14,32.818c6.778-9.042,16.311-13.903,27.015-16.672c16.658-4.313,32.847-3.271,47.855,5.614
	c10.484,6.209,17.389,14.933,15.723,28.122c-0.965,7.598-5.299,13.243-11.051,17.907c-7.586,6.148-16.475,10.205-26.021,10.352
	C43.598,78.396,28.201,83.25,12.467,92.529z"/>
</svg>
