<?xml version="1.0" encoding="utf-8"?>
<!-- Generator: Adobe Illustrator 16.0.0, SVG Export Plug-In . SVG Version: 6.00 Build 0)  -->
<!DOCTYPE svg PUBLIC "-//W3C//DTD SVG 1.1//EN" "http://www.w3.org/Graphics/SVG/1.1/DTD/svg11.dtd">
<svg version="1.1" id="Layer_1" xmlns="http://www.w3.org/2000/svg" xmlns:xlink="http://www.w3.org/1999/xlink" x="0px" y="0px"
	 width="100px" height="100px" viewBox="0 0 100 100" enable-background="new 0 0 100 100" xml:space="preserve">
<g id="notif_4_">
	<g>
		<path fill-rule="evenodd" clip-rule="evenodd" fill="#2D3F50" d="M3.515,64.409c4.968,0.035,8.164-2.148,9.93-6.818
			c2.117-5.595,4.123-11.227,6.179-16.845c3.296-8.976,9.766-14.039,19.18-15.204c2.148-0.268,3.57-0.854,4.842-2.724
			c1.67-2.451,4.368-3.021,7.128-2.001c2.753,1.021,4.445,3.177,4.08,6.152c-0.298,2.461,0.784,3.842,2.292,5.492
			c5.867,6.377,7.71,13.863,5.062,22.166c-1.894,5.949-4.213,11.761-6.302,17.642c-2.001,5.629-1.157,8.851,3.565,12.57
			c1.151,0.914,1.679,1.623,0.966,2.912c-0.766,1.379-1.858,0.617-2.791,0.276C39.291,81.359,20.934,74.677,2.59,67.951
			c-0.969-0.355-2.627-0.253-2.279-2.118C0.729,63.59,2.391,64.336,3.515,64.409z"/>
		<path fill-rule="evenodd" clip-rule="evenodd" fill="#EDF7F9" d="M61.366,75.609c1.076-3.063,2.305-6.567,3.55-10.064
			c1.027-2.88,2.163-5.725,3.079-8.642c3.123-9.869,1.249-18.869-4.847-27.118c-0.648-0.876-2.279-1.716-1.203-2.936
			c0.89-1.004,2.266,0.01,3.307,0.469c5.744,2.543,9.803,6.747,12.008,12.647c2.096,5.6,4.216,11.2,6.136,16.862
			c1.654,4.88,4.857,7.451,10.017,7.559c1.313,0.033,2.919-0.21,3.233,1.541c0.355,1.968-1.555,1.877-2.65,2.28
			c-9.481,3.498-18.991,6.904-28.479,10.373C63.051,79.476,61.275,79.413,61.366,75.609z"/>
		<path fill-rule="evenodd" clip-rule="evenodd" fill="#2D3F50" d="M27.795,93.542c-5.59,0-10.094-4.944-9.607-10.376
			c0.18-1.966,0.854-2.598,2.773-1.873c4.568,1.716,9.16,3.406,13.771,5.015c2.009,0.702,2.009,1.724,0.881,3.217
			C33.646,92.128,31.026,93.426,27.795,93.542z"/>
		<path fill-rule="evenodd" clip-rule="evenodd" fill="#EDF7F9" d="M78.905,84.394c0.054,5.12-5.456,9.989-10.434,9.229
			c-2.036-0.316-3.022-1.061-2.309-3.477c1.627-5.534,4.155-7.89,9.856-8.806C78.65,80.919,78.907,82.469,78.905,84.394z"/>
	</g>
</g>
</svg>
