<?xml version="1.0" encoding="utf-8"?>
<!-- Generator: Adobe Illustrator 16.0.0, SVG Export Plug-In . SVG Version: 6.00 Build 0)  -->
<!DOCTYPE svg PUBLIC "-//W3C//DTD SVG 1.1//EN" "http://www.w3.org/Graphics/SVG/1.1/DTD/svg11.dtd">
<svg version="1.1" id="Layer_1" xmlns="http://www.w3.org/2000/svg" xmlns:xlink="http://www.w3.org/1999/xlink" x="0px" y="0px"
	 width="100px" height="100px" viewBox="0 0 100 100" enable-background="new 0 0 100 100" xml:space="preserve">
<g id="notif_4_">
	<g>
		<path fill="#2D3F50" d="M3.515,64.409c4.968,0.034,8.164-2.148,9.93-6.818c2.117-5.595,4.123-11.227,6.179-16.845
			c3.296-8.976,9.766-14.039,19.18-15.204c2.148-0.268,3.57-0.854,4.842-2.724c1.67-2.451,4.368-3.021,7.127-2.001
			c2.754,1.021,4.445,3.177,4.08,6.152c-0.297,2.461,0.785,3.842,2.293,5.492c5.867,6.377,7.709,13.863,5.062,22.166
			c-1.894,5.949-4.213,11.762-6.302,17.643c-2.002,5.629-1.157,8.851,3.564,12.569c1.151,0.914,1.68,1.623,0.967,2.912
			c-0.767,1.379-1.858,0.617-2.791,0.276C39.291,81.359,20.934,74.677,2.59,67.951c-0.969-0.355-2.627-0.253-2.279-2.118
			C0.729,63.59,2.391,64.336,3.515,64.409z"/>
		<path fill="#EDF7F9" d="M61.366,75.609c1.075-3.063,2.305-6.567,3.55-10.064c1.027-2.88,2.163-5.725,3.079-8.643
			c3.123-9.868,1.249-18.868-4.847-27.117c-0.648-0.876-2.279-1.716-1.203-2.936c0.89-1.004,2.266,0.01,3.307,0.469
			c5.744,2.543,9.803,6.747,12.008,12.647c2.096,5.6,4.217,11.2,6.137,16.862c1.653,4.88,4.856,7.45,10.017,7.559
			c1.313,0.033,2.919-0.21,3.233,1.541c0.354,1.968-1.556,1.878-2.65,2.28c-9.48,3.498-18.991,6.904-28.479,10.373
			C63.051,79.477,61.275,79.413,61.366,75.609z"/>
		<path fill="#E64D3C" d="M89.451,7.609c6.013,0.166,10.513,5.013,10.277,11.079c-0.23,6.009-5.132,10.448-11.214,10.146
			c-5.775-0.282-10.121-4.968-10.016-10.806C78.605,11.993,83.383,7.443,89.451,7.609z"/>
		<path fill="#2D3F50" d="M27.795,93.542c-5.59,0-10.094-4.944-9.607-10.376c0.18-1.966,0.854-2.598,2.773-1.873
			c4.568,1.716,9.16,3.406,13.771,5.016c2.009,0.701,2.009,1.724,0.881,3.217C33.646,92.128,31.026,93.426,27.795,93.542z"/>
		<path fill="#EDF7F9" d="M78.904,84.395c0.055,5.119-5.455,9.988-10.434,9.229c-2.035-0.316-3.021-1.061-2.309-3.477
			c1.627-5.535,4.154-7.891,9.855-8.807C78.65,80.919,78.907,82.469,78.904,84.395z"/>
	</g>
</g>
</svg>
