<?xml version="1.0" encoding="utf-8"?>
<!-- Generator: Adobe Illustrator 16.0.0, SVG Export Plug-In . SVG Version: 6.00 Build 0)  -->
<!DOCTYPE svg PUBLIC "-//W3C//DTD SVG 1.1//EN" "http://www.w3.org/Graphics/SVG/1.1/DTD/svg11.dtd">
<svg version="1.1" id="Layer_1" xmlns="http://www.w3.org/2000/svg" xmlns:xlink="http://www.w3.org/1999/xlink" x="0px" y="0px"
	 width="100px" height="100px" viewBox="0 0 100 100" enable-background="new 0 0 100 100" xml:space="preserve">
<g id="connection_4_">
	<path fill="#2D3F50" d="M49.907,7.829c-14.627,0.148-27.274,10.339-30,24.639c-2.207,11.595,1.332,21.414,10.09,29.339
		c1.886,1.703,2.116,4.108,0.488,5.771c-1.385,1.4-3.558,1.563-5.065,0.279c-7.487-6.412-12.165-14.453-13.324-24.275
		c-1.7-14.441,3.24-26.339,14.621-35.34c8.016-6.338,17.347-8.938,27.473-7.61c16.051,2.113,26.854,11.076,32.121,26.33
		c4.994,14.473-0.027,31.14-11.853,40.888c-1.581,1.299-3.842,1.127-5.201-0.392c-1.354-1.515-1.301-3.784,0.146-5.228
		c0.711-0.698,1.498-1.314,2.19-2.037c7.972-8.367,10.878-18.265,7.921-29.422C76.498,19.383,68.91,12.126,57.579,8.858
		c-1.08-0.312-2.203-0.532-3.317-0.667C52.814,8.005,51.354,7.949,49.907,7.829z"/>
	<path fill="#2D3F50" d="M36.706,51.798c1.835-0.378,3.712-0.769,5.595-1.136c0.966-0.192,2.112-0.728,2.871-0.4
		c0.774,0.327,1.178,1.523,1.722,2.351c0.979,1.488,1.952,2.988,2.994,4.6c0.242-0.309,0.429-0.521,0.58-0.755
		c1.246-1.921,2.48-3.851,3.759-5.749c0.17-0.258,0.617-0.542,0.883-0.491c2.572,0.459,5.138,0.988,7.709,1.505
		c0.127,0.024,0.229,0.105,0.42,0.194c0,3.365,0,6.746,0,10.131c0,2.824,0.021,5.647-0.025,8.463
		c-0.01,0.416-0.277,0.944-0.604,1.216c-1.338,1.131-2.771,2.166-4.118,3.289c-0.314,0.262-0.603,0.719-0.652,1.121
		c-0.476,3.982-0.905,7.973-1.347,11.961c-0.399,3.658-0.79,7.316-1.23,10.973c-0.025,0.231-0.416,0.602-0.648,0.602
		c-3.117,0.044-6.237,0.044-9.356,0.006c-0.233-0.003-0.626-0.365-0.655-0.599c-0.567-4.845-1.093-9.69-1.622-14.535
		c-0.296-2.735-0.617-5.472-0.894-8.208c-0.06-0.691-0.372-1.133-0.917-1.536c-1.363-1.008-2.695-2.047-4.004-3.116
		c-0.258-0.218-0.517-0.637-0.517-0.963c-0.025-6.175-0.025-12.349-0.012-18.521C36.634,52.102,36.671,52.003,36.706,51.798z"/>
	<path fill="#2D3F50" d="M50.675,23.206C39.02,23.001,31.496,34.451,35.809,44.667c0.365,0.844,0.532,1.88,0.416,2.777
		c-0.211,1.606-1.656,2.786-3.217,2.938c-1.672,0.17-3.12-0.642-3.863-2.229c-1.671-3.561-2.336-7.32-2.075-11.233
		c0.617-9.375,7.141-17.567,16.151-20.307c13.689-4.165,27.724,5.006,29.443,19.236c0.525,4.329-0.132,8.469-2.01,12.401
		c-0.799,1.697-2.6,2.503-4.307,2.031c-1.854-0.507-3.02-2.106-2.82-4.024c0.054-0.548,0.283-1.089,0.498-1.605
		c2.89-6.782,0.695-14.504-5.355-18.723C56.057,24.112,53.148,23.206,50.675,23.206z"/>
	<path fill="#E64D3C" d="M59.601,38.443c0.009,5.389-4.315,9.769-9.632,9.76c-5.336-0.008-9.671-4.291-9.707-9.563
		c-0.028-5.55,4.254-9.885,9.764-9.881C55.278,28.76,59.593,33.128,59.601,38.443z"/>
</g>
</svg>
