<?xml version="1.0" encoding="utf-8"?>
<!-- Generator: Adobe Illustrator 16.0.0, SVG Export Plug-In . SVG Version: 6.00 Build 0)  -->
<!DOCTYPE svg PUBLIC "-//W3C//DTD SVG 1.1//EN" "http://www.w3.org/Graphics/SVG/1.1/DTD/svg11.dtd">
<svg version="1.1" id="Layer_1" xmlns="http://www.w3.org/2000/svg" xmlns:xlink="http://www.w3.org/1999/xlink" x="0px" y="0px"
	 width="100px" height="100px" viewBox="0 0 100 100" enable-background="new 0 0 100 100" xml:space="preserve">
<g id="connection_4_">
	<path fill-rule="evenodd" clip-rule="evenodd" fill="#2D3F50" d="M49.907,7.829c-14.627,0.148-27.274,10.339-30,24.639
		c-2.207,11.595,1.332,21.414,10.09,29.339c1.886,1.703,2.116,4.108,0.488,5.771c-1.385,1.401-3.558,1.562-5.065,0.28
		c-7.487-6.413-12.165-14.454-13.324-24.276c-1.7-14.441,3.24-26.339,14.621-35.34c8.016-6.338,17.347-8.938,27.472-7.61
		c16.051,2.113,26.855,11.076,32.122,26.33c4.994,14.473-0.028,31.139-11.853,40.887c-1.581,1.3-3.842,1.127-5.201-0.391
		c-1.354-1.515-1.301-3.784,0.145-5.227c0.712-0.699,1.499-1.315,2.191-2.037c7.972-8.368,10.877-18.266,7.921-29.423
		C76.498,19.383,68.91,12.126,57.579,8.858c-1.08-0.312-2.203-0.532-3.318-0.667C52.815,8.005,51.354,7.949,49.907,7.829z"/>
	<path fill-rule="evenodd" clip-rule="evenodd" fill="#2D3F50" d="M36.706,51.798c1.835-0.378,3.712-0.768,5.595-1.136
		c0.966-0.192,2.112-0.728,2.871-0.4c0.774,0.327,1.178,1.523,1.722,2.351c0.979,1.489,1.952,2.988,2.994,4.6
		c0.242-0.309,0.429-0.522,0.58-0.755c1.246-1.921,2.48-3.851,3.759-5.749c0.17-0.258,0.617-0.542,0.882-0.491
		c2.572,0.459,5.138,0.988,7.71,1.504c0.126,0.025,0.229,0.106,0.419,0.195c0,3.365,0,6.746,0,10.131
		c0,2.824,0.021,5.648-0.025,8.463c-0.01,0.416-0.277,0.944-0.604,1.215c-1.338,1.131-2.771,2.166-4.118,3.29
		c-0.314,0.262-0.602,0.718-0.652,1.121c-0.475,3.982-0.906,7.972-1.347,11.961c-0.399,3.658-0.79,7.316-1.231,10.972
		c-0.025,0.232-0.415,0.602-0.648,0.602c-3.117,0.044-6.237,0.044-9.356,0.006c-0.233-0.003-0.626-0.365-0.655-0.599
		c-0.567-4.845-1.093-9.69-1.622-14.535c-0.296-2.736-0.617-5.472-0.894-8.208c-0.06-0.692-0.372-1.133-0.917-1.536
		c-1.363-1.008-2.695-2.047-4.004-3.117c-0.258-0.217-0.517-0.636-0.517-0.963c-0.025-6.174-0.025-12.348-0.012-18.521
		C36.634,52.101,36.671,52.003,36.706,51.798z"/>
	<path fill-rule="evenodd" clip-rule="evenodd" fill="#2D3F50" d="M50.675,23.206C39.02,23.001,31.496,34.451,35.809,44.667
		c0.365,0.844,0.532,1.88,0.416,2.777c-0.211,1.606-1.656,2.786-3.217,2.938c-1.672,0.17-3.12-0.642-3.863-2.229
		c-1.671-3.561-2.336-7.32-2.075-11.233c0.617-9.375,7.141-17.567,16.151-20.307c13.689-4.165,27.725,5.006,29.443,19.236
		c0.525,4.329-0.132,8.469-2.009,12.401c-0.8,1.697-2.601,2.503-4.307,2.031c-1.854-0.507-3.02-2.106-2.821-4.024
		c0.054-0.548,0.283-1.089,0.498-1.605c2.89-6.782,0.695-14.504-5.355-18.723C56.056,24.112,53.149,23.206,50.675,23.206z"/>
	<path fill-rule="evenodd" clip-rule="evenodd" fill="#2D3F50" d="M57.507,38.509c0.006,4.222-3.381,7.654-7.547,7.647
		c-4.181-0.006-7.578-3.362-7.606-7.493c-0.022-4.348,3.334-7.745,7.651-7.742C54.12,30.922,57.501,34.344,57.507,38.509z"/>
</g>
</svg>
