<?xml version="1.0" encoding="utf-8"?>
<!-- Generator: Adobe Illustrator 16.0.0, SVG Export Plug-In . SVG Version: 6.00 Build 0)  -->
<!DOCTYPE svg PUBLIC "-//W3C//DTD SVG 1.1//EN" "http://www.w3.org/Graphics/SVG/1.1/DTD/svg11.dtd">
<svg version="1.1" id="Layer_1" xmlns="http://www.w3.org/2000/svg" xmlns:xlink="http://www.w3.org/1999/xlink" x="0px" y="0px"
	 width="100px" height="100px" viewBox="0 0 100 100" enable-background="new 0 0 100 100" xml:space="preserve">
<g id="logo_15_">
	<g>
		<g id="logo_9_">
			<path fill="#FFFFFF" d="M1.518,25.122c1.099-2.046,15.38-9.246,15.644-8.883c0.263,0.361,0.874,13.339,0,14.306
				c-0.871,0.967-14.649,5.354-15.644,4.729C0.521,34.652,0.418,27.168,1.518,25.122z"/>
			<path fill="#FFFFFF" d="M20.293,14.462c-1.01,1.973-0.289,14.66,0,15.138c0.287,0.475,15.643-4.731,15.643-4.731
				s61.677,8.465,62.582,7.868c0.904-0.6,1.09-11.685,0-12.692C97.428,19.039,36.91,5.51,35.937,5.579
				C34.961,5.646,21.299,12.488,20.293,14.462z"/>
			<path fill="#FFFFFF" d="M1.518,37.813c0.8-1.099,15.644-4.155,15.644-4.155s0.534,14.062,0,14.307
				c-0.531,0.245-14.85,0.842-15.644,0C0.723,47.125,0.716,38.91,1.518,37.813z"/>
			<path fill="#FFFFFF" d="M20.293,32.83c-0.81,1.283-0.935,14.976,0,15.135c0.932,0.159,78.225,0,78.225,0s1.09-11.887,0-12.691
				c-1.091-0.802-62.582-6.598-62.582-6.598S21.1,31.544,20.293,32.83z"/>
			<path fill="#FFFFFF" d="M1.518,51.01c-0.596,0.331-0.499,9.477,0,10.152c0.5,0.677,34.418,9.645,34.418,9.645
				s28.236-2.63,28.941-3.284c0.709-0.658,0.422-16.249,0-16.513C64.46,50.75,2.115,50.682,1.518,51.01z"/>
			<path fill="#FFFFFF" d="M69.572,51.01c-0.688,0.689-0.607,15.385,0,15.977c0.608,0.597,28.041-2.408,28.946-3.284
				c0.904-0.873,0.757-12.508,0-12.692C97.762,50.826,70.263,50.321,69.572,51.01z"/>
			<path fill="#FFFFFF" d="M1.518,63.702c0.5-0.517,34.418,10.912,34.418,10.912s28.134-4.417,28.941-3.658
				c0.813,0.755,1.086,15.327,0,16.296c-1.084,0.969-27.502,7.414-28.941,7.162C34.495,94.161,2.115,75.012,1.518,73.854
				C0.922,72.697,1.02,64.217,1.518,63.702z"/>
			<path fill="#FFFFFF" d="M69.572,70.361c-0.49,0.542-0.808,15.396,0,15.729c0.807,0.335,27.843-6.132,28.946-7.159
				c1.104-1.03,0.892-11.229,0-12.232C97.627,65.698,70.065,69.818,69.572,70.361z"/>
		</g>
	</g>
</g>
</svg>
