<?xml version="1.0" encoding="utf-8"?>
<!-- Generator: Adobe Illustrator 16.0.0, SVG Export Plug-In . SVG Version: 6.00 Build 0)  -->
<!DOCTYPE svg PUBLIC "-//W3C//DTD SVG 1.1//EN" "http://www.w3.org/Graphics/SVG/1.1/DTD/svg11.dtd">
<svg version="1.1" id="Layer_1" xmlns="http://www.w3.org/2000/svg" xmlns:xlink="http://www.w3.org/1999/xlink" x="0px" y="0px"
	 width="100px" height="100px" viewBox="0 0 100 100" enable-background="new 0 0 100 100" xml:space="preserve">
<g id="blogger">
	<path fill-rule="evenodd" clip-rule="evenodd" fill="#E6E7E8" d="M98.346,41.721l-0.807-1.693l-1.358-1.073
		c-1.801-1.417-10.876,0.099-13.337-2.126c-1.722-1.599-1.968-4.468-2.5-8.346C79.37,20.938,78.75,20.554,77.568,18
		C73.287,8.935,61.712,2.114,53.75,1.174H32.175c-16.958,0-30.826,13.893-30.826,30.861v35.999c0,16.93,13.868,30.792,30.826,30.792
		h35.443c16.958,0,30.728-13.862,30.826-30.792l0.207-24.946L98.346,41.721z M32.568,26.381h17.087c3.268,0,5.925,2.647,5.925,5.886
		c0,3.224-2.657,5.9-5.925,5.9H32.568c-3.268,0-5.905-2.677-5.905-5.9C26.663,29.028,29.301,26.381,32.568,26.381z M67.322,73.442
		H32.568c-3.268,0-5.905-2.672-5.905-5.881c0-3.223,2.638-5.86,5.905-5.86h34.754c3.238,0,5.866,2.638,5.866,5.86
		C73.188,70.771,70.561,73.442,67.322,73.442z"/>
</g>
<g id="facebook">
	<path fill="#E6E7E8" d="M219.482,47.439v-2.085c0-0.784,0.52-0.967,0.885-0.967s2.244,0,2.244,0v-3.443l-3.09-0.012
		c-3.432,0-4.213,2.568-4.213,4.212v2.295h-1.982v3.547h1.982c0,4.554,0,10.039,0,10.039h4.174c0,0,0-5.54,0-10.039h2.814
		l0.363-3.547H219.482z"/>
</g>
<g id="twitter">
	<path fill="#E6E7E8" d="M202.07,43.668c-0.811,0.392-1.672,0.645-2.584,0.762c0.93-0.599,1.643-1.54,1.98-2.671
		c-0.869,0.552-1.832,0.945-2.857,1.176c-0.816-0.943-1.986-1.532-3.277-1.532c-2.479,0-4.49,2.162-4.49,4.836
		c0,0.376,0.039,0.747,0.113,1.096c-3.725-0.192-7.039-2.124-9.254-5.044c-0.385,0.712-0.607,1.541-0.607,2.431
		c0,1.673,0.793,3.162,2,4.017c-0.738-0.03-1.43-0.235-2.035-0.602c0,0.021,0,0.045,0,0.066c0,2.338,1.547,4.289,3.602,4.74
		c-0.375,0.11-0.773,0.16-1.186,0.16c-0.289,0-0.563-0.02-0.84-0.086c0.568,1.928,2.229,3.328,4.193,3.357
		c-1.537,1.303-3.473,2.068-5.578,2.068c-0.363,0-0.721-0.021-1.072-0.067c1.986,1.379,4.344,2.182,6.885,2.182
		c8.26,0,12.781-7.371,12.781-13.76c0-0.203-0.006-0.41-0.016-0.618C200.705,45.489,201.467,44.636,202.07,43.668z"/>
</g>
<g id="pinterest">
	<path fill="#E6E7E8" d="M245.17,39.642c-6.041,0-10.938,4.897-10.938,10.938c0,4.479,2.693,8.327,6.549,10.018
		c-0.033-0.762-0.008-1.68,0.189-2.511c0.209-0.888,1.406-5.961,1.406-5.961s-0.35-0.698-0.35-1.729
		c0-1.622,0.939-2.832,2.111-2.832c0.994,0,1.475,0.747,1.475,1.643c0,1.001-0.639,2.496-0.967,3.881
		c-0.273,1.16,0.582,2.107,1.727,2.107c2.074,0,3.469-2.661,3.469-5.815c0-2.398-1.615-4.192-4.551-4.192
		c-3.318,0-5.385,2.475-5.385,5.237c0,0.954,0.279,1.627,0.719,2.146c0.203,0.239,0.23,0.335,0.158,0.61
		c-0.053,0.2-0.174,0.686-0.223,0.878c-0.072,0.276-0.297,0.376-0.547,0.273c-1.529-0.624-2.24-2.297-2.24-4.179
		c0-3.107,2.619-6.834,7.816-6.834c4.176,0,6.926,3.022,6.926,6.267c0,4.292-2.387,7.496-5.904,7.496
		c-1.18,0-2.291-0.639-2.67-1.362c0,0-0.637,2.52-0.77,3.006c-0.232,0.844-0.688,1.686-1.102,2.342c0.984,0.292,2.023,0.45,3.1,0.45
		c6.041,0,10.938-4.897,10.938-10.938S251.211,39.642,245.17,39.642z"/>
</g>
</svg>
