<?xml version="1.0" encoding="utf-8"?>
<!-- Generator: Adobe Illustrator 16.0.0, SVG Export Plug-In . SVG Version: 6.00 Build 0)  -->
<!DOCTYPE svg PUBLIC "-//W3C//DTD SVG 1.1//EN" "http://www.w3.org/Graphics/SVG/1.1/DTD/svg11.dtd">
<svg version="1.1" id="Layer_1" xmlns="http://www.w3.org/2000/svg" xmlns:xlink="http://www.w3.org/1999/xlink" x="0px" y="0px"
	 width="100px" height="100px" viewBox="0 0 100 100" enable-background="new 0 0 100 100" xml:space="preserve">
<g id="facebook">
	<path fill="#E6E7E8" d="M57.238,32.794V22.661c0-3.811,2.525-4.699,4.301-4.699s10.907,0,10.907,0V1.225L57.429,1.168
		c-16.68,0-20.477,12.483-20.477,20.472v11.154h-9.636v17.24h9.636c0,22.129,0,48.797,0,48.797h20.286c0,0,0-26.934,0-48.797h13.68
		l1.766-17.24H57.238z"/>
</g>
<g id="pinterest">
	<path fill="#E6E7E8" d="M144.355,36.975c-6.041,0-10.938,4.897-10.938,10.938c0,4.479,2.693,8.327,6.549,10.018
		c-0.033-0.762-0.008-1.68,0.189-2.512c0.209-0.887,1.406-5.96,1.406-5.96s-0.35-0.698-0.35-1.729c0-1.622,0.939-2.832,2.111-2.832
		c0.994,0,1.475,0.747,1.475,1.643c0,1.001-0.639,2.496-0.967,3.881c-0.273,1.161,0.582,2.108,1.727,2.108
		c2.074,0,3.469-2.662,3.469-5.816c0-2.398-1.615-4.192-4.551-4.192c-3.318,0-5.385,2.475-5.385,5.237
		c0,0.954,0.279,1.627,0.719,2.146c0.203,0.239,0.23,0.335,0.158,0.61c-0.053,0.2-0.174,0.686-0.223,0.877
		c-0.072,0.277-0.297,0.377-0.547,0.273c-1.529-0.623-2.24-2.296-2.24-4.178c0-3.107,2.619-6.834,7.816-6.834
		c4.176,0,6.926,3.022,6.926,6.267c0,4.292-2.387,7.496-5.904,7.496c-1.18,0-2.291-0.639-2.67-1.361c0,0-0.637,2.52-0.77,3.006
		c-0.232,0.844-0.688,1.686-1.102,2.342c0.984,0.291,2.023,0.449,3.1,0.449c6.041,0,10.938-4.896,10.938-10.938
		C155.293,41.873,150.396,36.975,144.355,36.975z"/>
</g>
</svg>
