<?xml version="1.0" encoding="utf-8"?>
<!-- Generator: Adobe Illustrator 16.0.0, SVG Export Plug-In . SVG Version: 6.00 Build 0)  -->
<!DOCTYPE svg PUBLIC "-//W3C//DTD SVG 1.1//EN" "http://www.w3.org/Graphics/SVG/1.1/DTD/svg11.dtd">
<svg version="1.1" id="Layer_1" xmlns="http://www.w3.org/2000/svg" xmlns:xlink="http://www.w3.org/1999/xlink" x="0px" y="0px"
	 width="100px" height="100px" viewBox="0 0 100 100" enable-background="new 0 0 100 100" xml:space="preserve">
<g id="blogger">
	<path fill-rule="evenodd" clip-rule="evenodd" fill="#E6E7E8" d="M168.291,48.937l-0.16-0.336l-0.27-0.213
		c-0.357-0.281-2.158,0.02-2.646-0.422c-0.342-0.317-0.391-0.887-0.496-1.656c-0.193-1.497-0.316-1.573-0.551-2.08
		c-0.85-1.799-3.146-3.152-4.727-3.339h-4.281c-3.365,0-6.117,2.757-6.117,6.124v7.144c0,3.359,2.752,6.11,6.117,6.11h7.033
		c3.365,0,6.098-2.751,6.117-6.11l0.041-4.95L168.291,48.937z M155.238,45.893h3.391c0.648,0,1.176,0.525,1.176,1.168
		c0,0.64-0.527,1.171-1.176,1.171h-3.391c-0.648,0-1.172-0.531-1.172-1.171C154.066,46.418,154.59,45.893,155.238,45.893z
		 M162.135,55.231h-6.896c-0.648,0-1.172-0.53-1.172-1.167c0-0.64,0.523-1.163,1.172-1.163h6.896c0.643,0,1.164,0.523,1.164,1.163
		C163.299,54.701,162.777,55.231,162.135,55.231z"/>
</g>
<g id="linkedin">
	<g>
		<rect x="4.215" y="34.117" fill="#E6E7E8" width="18.799" height="60.16"/>
		<path fill="#E6E7E8" d="M74.372,33.54c-10.773,0-17.526,5.892-18.773,10.019v-9.441H34.483c0.28,5.014,0,60.16,0,60.16h21.115
			V61.723c0-1.812-0.076-3.623,0.467-4.917c1.45-3.618,4.563-7.368,10.172-7.368c7.338,0,10.663,5.558,10.663,13.71v31.13H98.22
			V60.823C98.22,42.193,87.726,33.54,74.372,33.54z"/>
		<path fill="#E6E7E8" d="M13.267,5.723c-6.939,0-11.486,4.505-11.486,10.443c0,5.828,4.42,10.426,11.215,10.426h0.145
			c7.058,0,11.461-4.61,11.461-10.438C24.465,10.215,20.197,5.723,13.267,5.723z"/>
	</g>
</g>
<g id="facebook">
	<path fill="#E6E7E8" d="M219.482,47.439v-2.085c0-0.784,0.52-0.967,0.885-0.967s2.244,0,2.244,0v-3.443l-3.09-0.012
		c-3.432,0-4.213,2.568-4.213,4.212v2.295h-1.982v3.547h1.982c0,4.554,0,10.039,0,10.039h4.174c0,0,0-5.54,0-10.039h2.814
		l0.363-3.547H219.482z"/>
</g>
<g id="twitter">
	<path fill="#E6E7E8" d="M202.07,43.668c-0.811,0.392-1.672,0.645-2.584,0.762c0.93-0.599,1.643-1.54,1.98-2.671
		c-0.869,0.552-1.832,0.945-2.857,1.176c-0.816-0.943-1.986-1.532-3.277-1.532c-2.479,0-4.49,2.162-4.49,4.836
		c0,0.376,0.039,0.747,0.113,1.096c-3.725-0.192-7.039-2.124-9.254-5.044c-0.385,0.712-0.607,1.541-0.607,2.431
		c0,1.673,0.793,3.162,2,4.017c-0.738-0.03-1.43-0.235-2.035-0.602c0,0.021,0,0.045,0,0.066c0,2.338,1.547,4.289,3.602,4.74
		c-0.375,0.11-0.773,0.16-1.186,0.16c-0.289,0-0.563-0.02-0.84-0.086c0.568,1.928,2.229,3.328,4.193,3.357
		c-1.537,1.303-3.473,2.068-5.578,2.068c-0.363,0-0.721-0.021-1.072-0.067c1.986,1.379,4.344,2.182,6.885,2.182
		c8.26,0,12.781-7.371,12.781-13.76c0-0.203-0.006-0.41-0.016-0.618C200.705,45.489,201.467,44.636,202.07,43.668z"/>
</g>
<g id="pinterest">
	<path fill="#E6E7E8" d="M245.17,39.642c-6.041,0-10.938,4.897-10.938,10.938c0,4.479,2.693,8.327,6.549,10.018
		c-0.033-0.762-0.008-1.68,0.189-2.511c0.209-0.888,1.406-5.961,1.406-5.961s-0.35-0.698-0.35-1.729
		c0-1.622,0.939-2.832,2.111-2.832c0.994,0,1.475,0.747,1.475,1.643c0,1.001-0.639,2.496-0.967,3.881
		c-0.273,1.16,0.582,2.107,1.727,2.107c2.074,0,3.469-2.661,3.469-5.815c0-2.398-1.615-4.192-4.551-4.192
		c-3.318,0-5.385,2.475-5.385,5.237c0,0.954,0.279,1.627,0.719,2.146c0.203,0.239,0.23,0.335,0.158,0.61
		c-0.053,0.2-0.174,0.686-0.223,0.878c-0.072,0.276-0.297,0.376-0.547,0.273c-1.529-0.624-2.24-2.297-2.24-4.179
		c0-3.107,2.619-6.834,7.816-6.834c4.176,0,6.926,3.022,6.926,6.267c0,4.292-2.387,7.496-5.904,7.496
		c-1.18,0-2.291-0.639-2.67-1.362c0,0-0.637,2.52-0.77,3.006c-0.232,0.844-0.688,1.686-1.102,2.342c0.984,0.292,2.023,0.45,3.1,0.45
		c6.041,0,10.938-4.897,10.938-10.938S251.211,39.642,245.17,39.642z"/>
</g>
</svg>
