<?xml version="1.0" encoding="utf-8"?>
<!-- Generator: Adobe Illustrator 16.0.0, SVG Export Plug-In . SVG Version: 6.00 Build 0)  -->
<!DOCTYPE svg PUBLIC "-//W3C//DTD SVG 1.1//EN" "http://www.w3.org/Graphics/SVG/1.1/DTD/svg11.dtd">
<svg version="1.1" id="Layer_1" xmlns="http://www.w3.org/2000/svg" xmlns:xlink="http://www.w3.org/1999/xlink" x="0px" y="0px"
	 width="100px" height="100px" viewBox="0 0 100 100" enable-background="new 0 0 100 100" xml:space="preserve">
<g id="facebook">
	<path fill="#E6E7E8" d="M219.482,47.439v-2.085c0-0.784,0.52-0.967,0.885-0.967s2.244,0,2.244,0v-3.443l-3.09-0.012
		c-3.432,0-4.213,2.568-4.213,4.212v2.295h-1.982v3.547h1.982c0,4.554,0,10.039,0,10.039h4.174c0,0,0-5.54,0-10.039h2.814
		l0.363-3.547H219.482z"/>
</g>
<g id="twitter">
	<path fill="#E6E7E8" d="M99.375,17.021c-3.656,1.767-7.541,2.907-11.655,3.436c4.193-2.7,7.409-6.946,8.933-12.047
		c-3.92,2.488-8.264,4.264-12.889,5.303c-3.683-4.255-8.96-6.911-14.783-6.911c-11.18,0-20.254,9.753-20.254,21.813
		c0,1.696,0.177,3.37,0.511,4.942c-16.8-0.868-31.75-9.581-41.74-22.752c-1.736,3.212-2.74,6.951-2.74,10.964
		c0,7.546,3.577,14.264,9.021,18.118c-3.33-0.137-6.449-1.062-9.18-2.714c0,0.093,0,0.203,0,0.3
		c0,10.545,6.977,19.347,16.245,21.382c-1.691,0.497-3.489,0.722-5.348,0.722c-1.304,0-2.537-0.088-3.788-0.387
		c2.563,8.695,10.052,15.012,18.914,15.144c-6.933,5.876-15.663,9.33-25.16,9.33c-1.639,0-3.251-0.093-4.837-0.305
		c8.96,6.22,19.593,9.841,31.055,9.841c37.257,0,57.652-33.248,57.652-62.065c0-0.916-0.027-1.85-0.071-2.788
		C93.217,25.235,96.652,21.386,99.375,17.021z"/>
</g>
<g id="pinterest">
	<path fill="#E6E7E8" d="M245.17,39.642c-6.041,0-10.938,4.897-10.938,10.938c0,4.479,2.693,8.327,6.549,10.018
		c-0.033-0.762-0.008-1.68,0.189-2.511c0.209-0.888,1.406-5.961,1.406-5.961s-0.35-0.698-0.35-1.729
		c0-1.622,0.939-2.832,2.111-2.832c0.994,0,1.475,0.747,1.475,1.643c0,1.001-0.639,2.496-0.967,3.881
		c-0.273,1.16,0.582,2.107,1.727,2.107c2.074,0,3.469-2.661,3.469-5.815c0-2.398-1.615-4.192-4.551-4.192
		c-3.318,0-5.385,2.475-5.385,5.237c0,0.954,0.279,1.627,0.719,2.146c0.203,0.239,0.23,0.335,0.158,0.61
		c-0.053,0.2-0.174,0.686-0.223,0.878c-0.072,0.276-0.297,0.376-0.547,0.273c-1.529-0.624-2.24-2.297-2.24-4.179
		c0-3.107,2.619-6.834,7.816-6.834c4.176,0,6.926,3.022,6.926,6.267c0,4.292-2.387,7.496-5.904,7.496
		c-1.18,0-2.291-0.639-2.67-1.362c0,0-0.637,2.52-0.77,3.006c-0.232,0.844-0.688,1.686-1.102,2.342c0.984,0.292,2.023,0.45,3.1,0.45
		c6.041,0,10.938-4.897,10.938-10.938S251.211,39.642,245.17,39.642z"/>
</g>
</svg>
