<?xml version="1.0" encoding="utf-8"?>
<!-- Generator: Adobe Illustrator 16.0.0, SVG Export Plug-In . SVG Version: 6.00 Build 0)  -->
<!DOCTYPE svg PUBLIC "-//W3C//DTD SVG 1.1 Tiny//EN" "http://www.w3.org/Graphics/SVG/1.1/DTD/svg11-tiny.dtd">
<svg version="1.1" baseProfile="tiny" id="Layer_1" xmlns="http://www.w3.org/2000/svg" xmlns:xlink="http://www.w3.org/1999/xlink"
	 x="0px" y="0px" width="100px" height="100px" viewBox="0 0 100 100" xml:space="preserve">
<g>
	<path fill="#3C97D3" d="M18.746,77.195c-1.771,0-3.375,0.005-4.979,0c-7.31-0.016-13.53-6.213-13.53-13.481
		c-0.001-15.553-0.001-31.103,0-46.654C0.237,9.568,6.53,3.247,14,3.247c24.228-0.002,48.457-0.002,72.686,0
		c7.107,0,13.287,6.097,13.297,13.199c0.023,15.974,0.026,31.946,0,47.921c-0.01,6.729-6.145,12.818-12.877,12.822
		c-16.856,0.016-33.713,0-50.568,0.035c-0.705,0-1.516,0.246-2.096,0.644c-7.187,4.918-14.338,9.884-21.501,14.834
		c-0.301,0.207-0.619,0.396-1.205,0.769C14.135,87.896,16.411,82.615,18.746,77.195z M46.981,9.944
		c-6.738,0.601-11.04,4.254-12.666,10.301c-1.343,4.99-1.812,10.266-2.205,15.449c-0.353,4.642-0.074,9.331-0.074,13.923
		c5.207,0,10.034,0,14.809,0c0-7.29,0-14.367,0-21.795c-1.739,0-3.35,0-4.996,0c0.22-3.982,0.618-7.483,4.429-9.371
		c0.354-0.176,0.659-0.818,0.671-1.251C47.015,14.814,46.981,12.427,46.981,9.944z M26.187,9.94
		c-6.035,0.622-9.634,3.891-11.796,9.021c-2.258,5.359-2.425,11.053-2.592,16.723c-0.136,4.666-0.028,9.337-0.028,13.934
		c5.029,0,9.678,0,14.275,0c0-7.29,0-14.367,0-21.717c-1.599,0-3.06,0-4.612,0c-0.072-3.901,0.643-7.124,3.905-9.337
		c0.459-0.313,0.785-1.125,0.81-1.721C26.242,14.63,26.187,12.413,26.187,9.94z"/>
</g>
</svg>
