<?xml version="1.0" encoding="utf-8"?>
<!-- Generator: Adobe Illustrator 16.0.0, SVG Export Plug-In . SVG Version: 6.00 Build 0)  -->
<!DOCTYPE svg PUBLIC "-//W3C//DTD SVG 1.1//EN" "http://www.w3.org/Graphics/SVG/1.1/DTD/svg11.dtd">
<svg version="1.1" id="Layer_1" xmlns="http://www.w3.org/2000/svg" xmlns:xlink="http://www.w3.org/1999/xlink" x="0px" y="0px"
	 width="100px" height="100px" viewBox="0 0 100 100" enable-background="new 0 0 100 100" xml:space="preserve">
<g>
	<path fill-rule="evenodd" clip-rule="evenodd" fill="#3B73C7" d="M27.716,54.233c0.517-0.408,0.98-1.057,1.56-1.186
		c3.358-0.753,5.222-3.271,6.897-5.88c4.989-7.771,9.985-15.543,14.737-23.459c3.368-5.609,5.098-11.918,6.812-18.191
		c1.66-6.073,4.501-6.902,9.12-2.542c1.44,1.359,2.604,3.013,3.893,4.533c0.107,0.132,0.215,0.266,0.321,0.398l0.021,0.028
		c3.025,4.798,2.441,9.683,0.399,14.629c-1.69,4.095-3.396,8.187-4.962,12.331c-1.526,4.042-0.936,4.899,3.313,5.024
		c6.212,0.183,12.429,0.237,18.639,0.447c6.057,0.205,10.848,6.193,9.248,11.456c-0.168,0.555-0.471,1.071-0.738,1.591
		c-0.751,1.462-0.861,2.889-0.053,4.403c2.021,3.778,2.541,7.498-0.606,11.021c-1.058,1.183-1.273,2.551-0.815,4.096
		c1.072,3.615,0.524,6.877-2.299,9.574c-0.805,0.77-1.086,1.652-0.915,2.796c0.815,5.493-1.989,9.032-6.512,11.457
		c-5.087,2.728-10.704,3.245-16.335,3.489c-8.582,0.371-16.895-1.521-25.229-3.175c-4.418-0.878-8.824-1.789-13.331-2.157
		c-3.34-0.273-3.817-0.892-3.812-4.315c0.019-11.169-0.081-22.34,0.355-33.505C27.462,56.142,27.616,55.188,27.716,54.233z
		 M32.382,79.188C31.784,79.189,32.582,79.188,32.382,79.188c0,2.96,0.038,5.921-0.02,8.881c-0.021,1.093,0.281,1.5,1.449,1.649
		c3.072,0.395,6.136,0.904,9.17,1.532c9.704,2.007,19.393,4.084,29.408,3.321c4.086-0.312,8.103-0.938,11.626-3.197
		c1.688-1.083,3.408-2.379,2.886-4.776c-0.678-3.112,0.134-5.685,2.371-7.884c1.074-1.055,1.561-2.242,1.042-3.804
		c-1.139-3.418-0.931-6.597,1.682-9.419c1.149-1.244,1.222-2.87,0.358-4.347c-1.771-3.029-1.979-6.04-0.519-9.29
		c1.269-2.823,0.427-4.515-2.405-5.833c-0.799-0.372-1.587-0.274-2.386-0.293c-7.09-0.17-14.212,0.474-21.254-0.854
		c-3.028-0.571-5.176-3.008-5.436-6.113c-0.15-1.803,0.146-3.53,0.816-5.208c1.836-4.595,3.589-9.225,5.496-13.79
		c1.771-4.242,1.06-7.93-2.093-11.208c-0.402-0.418-0.716-1.152-1.338-1.037c-0.67,0.124-0.574,0.938-0.737,1.483
		c-1.976,6.588-4.044,13.136-7.75,19.021c-4.493,7.133-8.936,14.295-13.46,21.409c-1.968,3.096-4.181,6.009-7.514,7.803
		c-0.681,0.366-0.832,0.8-0.825,1.579C33.002,65.604,32.382,72.396,32.382,79.188z"/>
	<path fill-rule="evenodd" clip-rule="evenodd" fill="#3B73C7" d="M1.233,57.681C1.151,56.43,1.01,55.179,1,53.926
		c-0.018-2.265,0.935-3.207,3.205-3.211c5.917-0.013,11.835,0.051,17.751-0.042c1.729-0.027,2.836,0.54,3.444,2.125
		c0.513,12.931,0.034,25.865,0.173,38.798c0.033,3.139-0.767,3.983-3.846,4.057c-4.581,0.108-9.164,0.132-13.745,0.192
		c-2.263-0.076-2.739-1.777-2.959-3.489c-0.556-4.316-0.986-8.651-1.459-12.979c-0.337-3.08-0.664-6.162-0.995-9.243
		c-0.157-1.043-0.313-2.087-0.47-3.13c0.124-0.598,0.173-1.188-0.202-1.727C1.675,62.744,1.454,60.212,1.233,57.681z"/>
	<path fill-rule="evenodd" clip-rule="evenodd" fill="#F3F3F3" d="M71.057,7.907c-0.106-0.133-0.214-0.266-0.321-0.398
		C70.843,7.641,70.95,7.774,71.057,7.907z"/>
</g>
</svg>
