<?xml version="1.0" encoding="utf-8"?>
<!-- Generator: Adobe Illustrator 16.0.0, SVG Export Plug-In . SVG Version: 6.00 Build 0)  -->
<!DOCTYPE svg PUBLIC "-//W3C//DTD SVG 1.1 Tiny//EN" "http://www.w3.org/Graphics/SVG/1.1/DTD/svg11-tiny.dtd">
<svg version="1.1" baseProfile="tiny" id="Layer_1" xmlns="http://www.w3.org/2000/svg" xmlns:xlink="http://www.w3.org/1999/xlink"
	 x="0px" y="0px" width="100px" height="100px" viewBox="0 0 100 100" xml:space="preserve">
<g>
	<path fill="#3C97D3" d="M31.301,37.512c10.453-5.476,20.885-10.91,31.254-16.457c0.603-0.322,0.991-1.557,1.003-2.375
		c0.117-8.942,5.691-16.017,14.337-18.059c10.029-2.368,19.854,4.142,21.964,14.555c1.969,9.71-4.979,19.499-14.896,21.13
		c-5.098,0.838-9.695-0.266-13.842-3.223c-0.987-0.706-1.681-0.886-2.789-0.301c-10.201,5.4-20.406,10.793-30.682,16.058
		c-1.793,0.919-1.198,2.416-1.402,3.667c-0.082,0.491,0.863,1.396,1.532,1.729c9.532,4.734,19.116,9.365,28.633,14.129
		c1.433,0.715,2.289,0.627,3.494-0.422c5.898-5.131,14.037-5.979,20.767-2.309c6.575,3.589,10.383,11.161,9.319,18.534
		c-1.08,7.505-6.57,13.438-14.063,15.202c-10.771,2.533-21.093-4.95-22.245-16.234c-0.136-1.33-0.631-1.923-1.746-2.468
		c-10.369-5.068-20.732-10.153-31.046-15.336c-1.332-0.671-2.14-0.289-3.228,0.34c-6.645,3.846-13.389,3.858-19.758-0.38
		c-6.492-4.318-9.106-10.744-7.754-18.335C1.491,39.436,6.191,34.5,13.651,32.571C20.375,30.835,26.229,32.822,31.301,37.512z"/>
</g>
</svg>
