<?xml version="1.0" encoding="utf-8"?>
<!-- Generator: Adobe Illustrator 16.0.0, SVG Export Plug-In . SVG Version: 6.00 Build 0)  -->
<!DOCTYPE svg PUBLIC "-//W3C//DTD SVG 1.1//EN" "http://www.w3.org/Graphics/SVG/1.1/DTD/svg11.dtd">
<svg version="1.1" id="Layer_1" xmlns="http://www.w3.org/2000/svg" xmlns:xlink="http://www.w3.org/1999/xlink" x="0px" y="0px"
	 width="100px" height="100px" viewBox="0 0 100 100" enable-background="new 0 0 100 100" xml:space="preserve">
<path id="settings_4_" fill="#FFFFFF" d="M98.646,44.02c0,3.994,0,7.578,0,11.587c-6.666,0.197-13.72,0.07-16.64,7.377
	c-2.813,7.018,1.271,12.104,6.722,17.158c-2.842,2.653-5.617,5.244-8.354,7.795c-2.502-1.812-4.688-3.898-7.281-5.193
	c-8.362-4.174-15.985,0.179-17.118,9.535c-0.82,6.791-0.82,6.724-7.739,6.553c-2.828-0.068-4.766-0.506-4.371-4.104
	c0.19-1.733-0.319-3.611-0.799-5.345c-1.968-7.096-8.946-10.416-15.59-7.161c-2.85,1.395-5.29,3.617-8.68,6
	c-2.371-2.484-4.993-5.224-7.746-8.104c5.214-4.882,9.525-9.835,6.735-16.927c-2.843-7.195-9.448-7.594-16.434-7.432
	c0-3.964,0-7.739,0-11.757c6.651-0.163,13.629-0.323,16.457-7.616c2.713-6.981-1.445-12.125-6.871-17.202
	c2.85-2.753,5.594-5.406,8.604-8.313c4.758,5.434,9.942,9.661,17.11,6.698c7.039-2.909,7.472-9.577,7.32-16.449
	c4.082,0,7.852,0,11.835,0C55.76,8.202,56.157,15.014,63.59,17.74c6.879,2.517,11.873-1.533,16.768-6.866
	c2.781,2.874,5.429,5.606,8.226,8.482c-5.039,4.926-9.594,10.009-6.56,17.177C84.98,43.507,91.73,43.821,98.646,44.02z
	 M26.969,49.474c-0.114,13.015,9.95,23.239,22.948,23.318c12.739,0.082,22.856-10.213,22.938-23.362
	c0.092-12.446-10.07-22.501-22.817-22.585C37.093,26.76,27.083,36.578,26.969,49.474z"/>
</svg>
